<!-- icon666.com - MILLIONS vector ICONS FREE --><svg enable-background="new 0 0 512 512" viewBox="0 0 512 512" xmlns="http://www.w3.org/2000/svg"><g id="_x36_2_license"><g><path d="m502.69 161.546v245.178c0 13.21-10.664 23.873-23.873 23.873h-445.634c-13.21 0-23.873-10.663-23.873-23.873v-245.178z" fill="#fff"></path><path d="m502.69 161.566v-56.283c0-13.184-10.688-23.873-23.873-23.873h-445.634c-13.185 0-23.873 10.689-23.873 23.873v56.283z" fill="#47aacb"></path><path d="m502.69 105.285v56.261h-493.38v-22.361h422.556c30.876 0 56.023-24.988 56.261-55.864 8.595 3.581 14.563 12.096 14.563 21.964z" fill="#90cddf"></path><path d="m134.376 245.054v12.048c0 12.288-9.962 22.25-22.25 22.25-12.288 0-22.25-9.962-22.25-22.25v-12.048c0-12.288 9.962-22.25 22.25-22.25 12.288-.001 22.25 9.961 22.25 22.25z" fill="#dbdbdb"></path><path d="m166.654 356.417c-36.352 17.228-72.705 17.228-109.058 0 0-30.135 24.425-54.56 54.497-54.56 30.136 0 54.561 24.425 54.561 54.56z" fill="#47aacb"></path><path d="m166.635 356.431c-36.367 17.189-72.654 17.189-109.021 0 0-4.535.557-8.913 1.671-13.13 15.199 5.889 30.478 8.675 45.677 8.515 25.783-.398 36.765-24.909 31.354-44.246 17.984 8.833 30.319 27.374 30.319 48.861z" fill="#90cddf"></path><g fill="#3a3d3f"><path d="m478.817 73.45h-445.634c-17.551 0-31.831 14.276-31.831 31.831v301.438c0 17.555 14.28 31.831 31.831 31.831h445.634c17.551 0 31.831-14.276 31.831-31.831 0-107.344 0-189.428 0-301.438 0-17.555-14.28-31.831-31.831-31.831zm-445.634 15.915h445.634c8.778 0 15.915 7.142 15.915 15.915v48.306h-477.464v-48.306c0-8.773 7.138-15.915 15.915-15.915zm445.634 333.27h-445.634c-8.778 0-15.915-7.142-15.915-15.915v-237.194h477.465v237.194c-.001 8.773-7.139 15.915-15.916 15.915z"></path><path d="m149.32 129.449h213.36c4.395 0 7.958-3.559 7.958-7.958s-3.563-7.958-7.958-7.958h-213.36c-4.395 0-7.958 3.559-7.958 7.958.001 4.399 3.564 7.958 7.958 7.958z"></path><path d="m112.127 287.306c16.658 0 30.207-13.553 30.207-30.207v-12.045c0-16.654-13.549-30.207-30.207-30.207s-30.21 13.553-30.21 30.207v12.046c0 16.653 13.553 30.206 30.21 30.206zm-14.295-42.252c0-7.88 6.411-14.291 14.295-14.291 7.88 0 14.291 6.411 14.291 14.291v12.046c0 7.88-6.411 14.291-14.291 14.291-7.884 0-14.295-6.411-14.295-14.291z"></path><path d="m112.092 293.896c-34.438 0-62.454 28.046-62.454 62.52 0 3.077 1.772 5.875 4.55 7.188 38.422 18.221 77.428 18.232 115.873 0 2.778-1.313 4.55-4.111 4.55-7.188.001-34.473-28.046-62.52-62.519-62.52zm-46.27 57.508c2.502-23.353 22.3-41.592 46.27-41.592 24.005 0 43.83 18.239 46.336 41.592-31.104 13.397-61.501 13.397-92.606 0z"></path><path d="m206.482 238.052h98.388c4.395 0 7.958-3.559 7.958-7.958s-3.563-7.958-7.958-7.958h-98.388c-4.395 0-7.958 3.559-7.958 7.958s3.563 7.958 7.958 7.958z"></path><path d="m454.404 266.122h-247.922c-4.395 0-7.958 3.559-7.958 7.958s3.563 7.958 7.958 7.958h247.922c4.395 0 7.958-3.559 7.958-7.958s-3.564-7.958-7.958-7.958z"></path><path d="m206.482 326.023h98.388c4.395 0 7.958-3.559 7.958-7.958s-3.563-7.958-7.958-7.958h-98.388c-4.395 0-7.958 3.559-7.958 7.958 0 4.398 3.563 7.958 7.958 7.958z"></path><path d="m454.404 354.092h-247.922c-4.395 0-7.958 3.559-7.958 7.958s3.563 7.958 7.958 7.958h247.922c4.395 0 7.958-3.559 7.958-7.958-.001-4.398-3.564-7.958-7.958-7.958z"></path></g></g></g></svg>