<!-- icon666.com - MILLIONS vector ICONS FREE --><svg viewBox="0 0 64 64" xmlns="http://www.w3.org/2000/svg"><g id="_16" data-name="16"><path d="m24 37h16a10 10 0 0 1 10 10v11a0 0 0 0 1 0 0h-36a0 0 0 0 1 0 0v-11a10 10 0 0 1 10-10z" fill="#af3737" style="fill: rgb(55, 79, 174);"></path><path d="m40 36h-1.38a12 12 0 0 0 5.38-10v-2a12 12 0 0 0 -24 0v2a12 12 0 0 0 5.38 10h-1.38a11 11 0 0 0 -11 11v11a1 1 0 0 0 2 0v-11a9 9 0 0 1 9-9h3.52l3.7 4.63a1 1 0 0 0 1.56 0l3.7-4.63h3.52a9 9 0 0 1 9 9v11a1 1 0 0 0 2 0v-11a11 11 0 0 0 -11-11z" fill="#000000"></path><path d="m32 14a10 10 0 0 1 8 4 9 9 0 0 0 -8 1.63 8.92 8.92 0 0 0 -8-1.63 10 10 0 0 1 8-4z" fill="#4f4f4f"></path><g fill="#ffe0d4"><path d="m22 26v-2a9.93 9.93 0 0 1 .48-3 6.89 6.89 0 0 1 8.81.76 1 1 0 0 0 1.42 0 6.89 6.89 0 0 1 8.81-.76 9.93 9.93 0 0 1 .48 3v2a9.93 9.93 0 0 1 -3.24 7.34l-1.93-2.89a1 1 0 0 0 -.83-.45h-8a1 1 0 0 0 -.83.45l-1.93 2.89a9.93 9.93 0 0 1 -3.24-7.34z" fill="#ffe0d4"></path><path d="m26.84 34.55 1.7-2.55h6.92l1.7 2.55a9.91 9.91 0 0 1 -10.32 0z" fill="#ffe0d4"></path><path d="m32 40.4-1.92-2.4h3.84z" fill="#ffe0d4"></path></g><path d="m21 47a1 1 0 0 0 -1 1v10a1 1 0 0 0 2 0v-10a1 1 0 0 0 -1-1z" fill="#000000"></path><path d="m43 47a1 1 0 0 0 -1 1v10a1 1 0 0 0 2 0v-10a1 1 0 0 0 -1-1z" fill="#000000"></path></g></svg>