<!-- icon666.com - MILLIONS vector ICONS FREE --><svg id="Layer_1" enable-background="new 0 0 68 68" viewBox="0 0 68 68" xmlns="http://www.w3.org/2000/svg"><g><g><g><path d="m61.9315872 66c1.6567879 0 2.9998779-1.3430939 2.9998779-2.9998779v-5.1709633c0-6.3095207-3.6777458-12.0326424-9.4238777-14.6526337l-6.722805-3.0571213c-2.3214569-1.0571976-4.7234421-1.8500938-7.182663-2.3786964-5.0107498-1.1032104-10.1934891-1.1032104-15.2042389 0-2.447998.5286026-4.8612041 1.3214989-7.182663 2.3786964l-6.7230854 3.0571213c-5.7346272 2.6199913-9.4235983 8.3431129-9.4235983 14.6526337v5.1709633c.0000003 1.656784 1.3430921 2.9998779 2.9998799 2.9998779z" fill="#4f5d99"></path></g></g><g><g><g><path d="m20.0406628 66h7.9191666l-1.6054382-28.2334785c-3.2181702 1.6475258-5.7102165 3.7871704-7.1818218 6.5339813-.6279202 1.1178017-.8044014 2.4522057-.5886402 3.7074852l.5443096 3.5200691c.1669426 1.0807648-.549921 2.0998039-1.6231117 2.307991h-.0005627c-1.0984421.2154808-1.804924 1.2951241-1.5299625 2.3742065z" fill="#3d4a75"></path></g></g><g><g><path d="m47.6237717 66 4.4925308-9.7897453c.2749634-1.0790825-.4315186-2.1587257-1.5299606-2.3742065h-.0005608c-1.0731926-.2081871-1.7900543-1.2272263-1.6231155-2.307991l.5443115-3.5200691c.2157593-1.2552795.0392799-2.5896835-.5886421-3.7074852-1.4716034-2.7468109-4.0520325-4.8887024-7.2702026-6.5367851l-1.5260354 28.2362822z" fill="#3d4a75"></path></g></g></g><g><g><path d="m40.0460625 66 1.6020699-28.2362823-.0460129-.0230103c-5.0107498-1.1032104-10.1934891-1.1032104-15.2042389 0l-.0460148.0230103 1.6124534 28.2362823z" fill="#e9e9ff"></path></g></g><g><g><path d="m41.6481323 37.7506332-7.6481323 4.4747506 2.7577934 4.0809784 4.543171-2.4237175z" fill="#cfcfff"></path></g></g><g><g><path d="m26.3518658 37.7506332 7.6481342 4.4747506-2.7577934 4.0809784-4.543169-2.4237175z" fill="#cfcfff"></path></g></g><g><g><path d="m31.7568207 66h4.4863586l-1.2199287-17.1637611c-.0852966-1.1991653.403183-2.3674698 1.3161659-3.149147l-2.3394165-3.4617081-2.3394165 3.4617081c.9129829.7816772 1.4014626 1.9499817 1.3161659 3.149147z" fill="#ed524e"></path></g></g><g><g><path d="m42.7973595 31.7184944-.896431 4.6777115-.2527962 1.3557282-7.6425209 4.4706459-7.6537456-4.4706459-.2988091-1.5858002-.8504162-4.4476395z" fill="#ffcbba"></path></g></g><g><g><path d="m42.7973595 31.7184944-.896431 4.6777115c-2.1491852 1.6778221-4.8381958 2.6772232-7.7687798 2.6772232h-.0230064c-3.0568409 0-5.8608837-1.0914268-8.0560856-2.9072952l-.8504162-4.4476395z" fill="#efb7a8"></path></g></g><g><g><g><path d="m47.8090668 18.1776733v-6.3351498c0-5.0745168-4.242485-9.1185474-9.3111839-8.8756285l-7.7277527.370355c-2.1223869.101716-4.2339382-.3595183-6.1206017-1.336947l-.0005856-.000303s-6.0048676 4.2693567-5.2759533 9.0246572 1.0676098 7.1530161 1.0676098 7.1530161l1.2232647 3.3641796 5.2759533.8677559 6.1437092-.6247845 6.2825508 1.7008018 4.1999359-.381813 2.4991341-1.3884087z" fill="#7f6218"></path></g></g><g><g><path d="m45.6431999 25.9305267v.477808c0 6.3644428-5.153923 11.517828-11.5072479 11.517828h-.0222359c-6.3533268 0-11.5072517-5.1533852-11.5072517-11.517828v-.477808s-2.4101925-3.3099461-2.1658649-7.7528534l2.4657822 2.4215813.1111813-.4886551c.2332096-.9333801.8775177-1.6997166 1.7550354-2.0994263v-1.988245c0-.6106825.2554455-1.1660461.6551552-1.5662985.3999805-.4110994.9553452-.6551552 1.5662994-.6551552.9884262 0 1.9548893.2332087 2.8435249.6773911 1.0662556.5445166 2.7101097 1.2110615 4.2872543 1.122117 1.5771446.0889444 3.2210007-.5776005 4.2872543-1.122117.8889084-.4441824 1.8550987-.6773911 2.8435249-.6773911.6109543 0 1.1663208.2440557 1.5662994.6551552.3997116.4002523.6551552.955616.6551552 1.5662985v1.988245c.8775177.3997097 1.5218277 1.1660461 1.7550354 2.0994263l.1111832.4886551 2.4657822-2.4215813c.2443275 4.4429074-2.1658669 7.7528534-2.1658669 7.7528534z" fill="#ffcbba"></path></g></g></g></g></svg>