<!-- icon666.com - MILLIONS vector ICONS FREE --><svg version="1.1" id="Capa_1" xmlns="http://www.w3.org/2000/svg" xmlns:xlink="http://www.w3.org/1999/xlink" x="0px" y="0px" viewBox="0 0 423.91 423.91" style="enable-background:new 0 0 423.91 423.91;" xml:space="preserve"><g><g><path style="fill: rgb(239, 240, 245);" d="M253.444,210.47c-22.54-23.029-35.168-53.967-35.18-86.19V57.31L304.595,10l88.78,47.31v65.74 c-0.006,46.709-26.417,89.401-68.21,110.26c-2.4,1.21-4.86,2.34-7.36,3.4l-13.52,5.84l-11.98-5.22 C277.744,230.959,264.55,221.839,253.444,210.47z" fill="#00ACEA"></path><path style="" d="M352.865,346.55v44.47c0,12.592-10.208,22.8-22.8,22.8c-0.003,0-0.007,0-0.01,0h-19 c-12.592,0.006-22.804-10.198-22.81-22.79c0-0.003,0-0.007,0-0.01v-21.67h41.81c12.592,0.006,22.804-10.198,22.81-22.79 C352.865,346.557,352.865,346.553,352.865,346.55z" fill="#D4E1F4"></path><path style="fill: rgb(254, 243, 199);" d="M352.865,340.84v5.71c0,12.592-10.208,22.8-22.8,22.8c-0.003,0-0.007,0-0.01,0H53.345 c-12.592,0.006-22.804-10.198-22.81-22.79c0-0.003,0-0.007,0-0.01v-56.77c0.003-10.045,4.42-19.582,12.08-26.08l11.87-11.04 h278.99v0.38l8.67,9.26c6.842,6.463,10.719,15.458,10.72,24.87V340.84z M319.414,333.24v-37.25h-54.35v37.25H319.414z M118.334,333.24v-37.25h-54.35v37.25H118.334z" fill="#00EFD1"></path><g><path style="" d="M325.204,233.39l8.27,19.27h-122.21c0.081-23.264,18.917-42.104,42.18-42.19 c11.105,11.369,24.3,20.489,38.86,26.86l11.98,5.22l13.52-5.84c2.5-1.06,4.96-2.19,7.36-3.4L325.204,233.39z" fill="#D4E1F4"></path><rect x="265.064" y="295.99" style="" width="54.35" height="37.25" fill="#D4E1F4"></rect><path style="" d="M230.895,178.59c5.777,11.756,13.389,22.517,22.55,31.88c-23.263,0.086-42.099,18.926-42.18,42.19 H54.485l25.48-59.35c3.68-8.572,12.111-14.129,21.44-14.13h128.31L230.895,178.59z" fill="#D4E1F4"></path><rect x="63.985" y="295.99" style="" width="54.35" height="37.25" fill="#D4E1F4"></rect><path style="" d="M95.154,369.73v21.29c0,12.592-10.208,22.8-22.8,22.8c-0.003,0-0.007,0-0.01,0h-19 c-12.592,0.006-22.804-10.198-22.81-22.79c0-0.003,0-0.007,0-0.01v-44.47c0,12.592,10.208,22.8,22.8,22.8c0.003,0,0.007,0,0.01,0 h41.81V369.73z" fill="#D4E1F4"></path></g></g><g><path style="fill: rgb(0, 0, 0);" d="M118.335,343.24h-54.35c-5.523,0-10-4.477-10-10v-37.25c0-5.523,4.477-10,10-10h54.35 c5.523,0,10,4.477,10,10v37.25C128.335,338.763,123.857,343.24,118.335,343.24z M73.985,323.24h34.35v-17.25h-34.35L73.985,323.24 z" fill="#083863"></path><path style="fill: rgb(0, 0, 0);" d="M319.414,343.24h-54.35c-5.523,0-10-4.477-10-10v-37.25c0-5.523,4.477-10,10-10h54.35 c5.523,0,10,4.477,10,10v37.25C329.414,338.763,324.937,343.24,319.414,343.24z M275.064,323.24h34.35v-17.25h-34.35V323.24z" fill="#083863"></path><path style="fill: rgb(0, 0, 0);" d="M226.474,341.47h-69.56c-5.523,0-10-4.477-10-10s4.477-10,10-10h69.56c5.523,0,10,4.477,10,10 S231.997,341.47,226.474,341.47L226.474,341.47z" fill="#083863"></path><path style="fill: rgb(0, 0, 0);" d="M226.474,313.59h-69.56c-5.523,0-10-4.477-10-10s4.477-10,10-10h69.56c5.523,0,10,4.477,10,10 S231.997,313.59,226.474,313.59L226.474,313.59z" fill="#083863"></path><path style="fill: rgb(0, 0, 0);" d="M397.867,48.485l-88.675-47.31c-2.958-1.586-6.518-1.565-9.457,0.055l-86.458,47.31 c-3.234,1.741-5.271,5.098-5.323,8.77v66.97c0.091,15.236,2.84,30.339,8.123,44.63H101.404 c-13.352,0.048-25.394,8.037-30.63,20.32l-24.646,57.48l-9.958,9.491c-9.743,8.426-15.304,20.698-15.216,33.579v101.24 c-0.181,17.983,14.251,32.708,32.234,32.889c0.052,0.001,0.104,0.001,0.156,0.001h19c18.087-0.077,32.687-14.801,32.61-32.887 c0-0.001,0-0.002,0-0.003v-12.11h173v12.11c0.153,18.183,14.917,32.853,33.1,32.89h19c18.143-0.055,32.84-14.747,32.9-32.89 V287.17c-0.038-12.05-4.968-23.569-13.661-31.914l-7-7.451l-4.339-10.095c40.429-24.026,65.148-67.631,65-114.66V57.31 C403.039,53.649,401.077,50.247,397.867,48.485z M249.595,220.961c9.178,8.689,19.506,16.074,30.696,21.949h-57.427 C226.667,230.963,237.136,222.366,249.595,220.961z M89.154,197.246c2.071-4.96,6.876-8.229,12.25-8.336h123.78 c2.893,5.194,6.09,10.212,9.574,15.029c-16.833,6.517-29.122,21.244-32.522,38.971H69.66L89.154,197.246z M40.955,289.78 c-0.083-7.082,2.97-13.838,8.34-18.455c0.116-0.1,0.124-0.074,0.236-0.178l8.886-8.237h270.366l6.063,6.35 c0.14,0.15,0.33,0.232,0.478,0.373c4.843,4.551,7.602,10.892,7.631,17.537v59.38c0,7.058-5.837,12.36-12.9,12.36H53.345 c-6.681,0.162-12.228-5.123-12.389-11.804c-0.004-0.185-0.005-0.371-0.001-0.556V289.78z M84.954,391.02 c0.09,7.029-5.535,12.8-12.564,12.89c-0.015,0-0.03,0-0.046,0h-19c-7.064,0-12.39-5.832-12.39-12.89v-14.275 c3.935,1.573,8.155,2.311,12.39,2.165h31.61V391.02z M330.055,403.91h-19c-7.143-0.024-12.96-5.748-13.1-12.89v-12.11h32.1 c4.401,0.145,8.787-0.591,12.9-2.165v14.275C342.909,398.124,337.158,403.87,330.055,403.91z M382.954,123.05 c0.104,22.291-6.417,44.11-18.734,62.689c-10.942,16.452-25.984,29.766-43.642,38.631c-0.007,0,0.039,0.007,0.032,0.01 c-2.123,1.071-4.372,2.121-6.8,3.15l-9.523,4.12l-7.98-3.48c-41.347-18.039-68.152-58.78-68.353-103.89V63.233l76.341-41.866 l78.659,41.943V123.05z" fill="#083863"></path><path style="fill: rgb(0, 0, 0);" d="M292,161.62c-2.928,0.005-5.71-1.277-7.609-3.506l-23.35-27.34 c-3.587-4.201-3.088-10.514,1.113-14.101c4.201-3.587,10.514-3.088,14.101,1.113l23.35,27.34c3.587,4.2,3.089,10.512-1.11,14.098 c-1.809,1.545-4.11,2.394-6.49,2.396H292z" fill="#083863"></path><path style="fill: rgb(0, 0, 0);" d="M292,161.62c-5.523,0.003-10.003-4.471-10.006-9.994c-0.002-3.011,1.353-5.863,3.689-7.763 l54.38-44.24c4.284-3.485,10.583-2.837,14.068,1.447c3.485,4.284,2.837,10.583-1.447,14.068l-54.379,44.239 C296.525,160.829,294.298,161.622,292,161.62z" fill="#083863"></path></g></g></svg>