<?xml version="1.0" encoding="UTF-8" standalone="no"?>
<!-- icon666.com - MILLIONS vector ICONS FREE -->

<svg
   viewBox="0 0 64 64"
   version="1.1"
   id="svg1093"
   sodipodi:docname="titular.svg"
   inkscape:version="1.2.2 (732a01da63, 2022-12-09)"
   xmlns:inkscape="http://www.inkscape.org/namespaces/inkscape"
   xmlns:sodipodi="http://sodipodi.sourceforge.net/DTD/sodipodi-0.dtd"
   xmlns="http://www.w3.org/2000/svg"
   xmlns:svg="http://www.w3.org/2000/svg">
  <defs
     id="defs1097" />
  <sodipodi:namedview
     id="namedview1095"
     pagecolor="#ffffff"
     bordercolor="#000000"
     borderopacity="0.25"
     inkscape:showpageshadow="2"
     inkscape:pageopacity="0.0"
     inkscape:pagecheckerboard="0"
     inkscape:deskcolor="#d1d1d1"
     showgrid="false"
     inkscape:zoom="12.59375"
     inkscape:cx="32"
     inkscape:cy="32"
     inkscape:window-width="1920"
     inkscape:window-height="1009"
     inkscape:window-x="1912"
     inkscape:window-y="-8"
     inkscape:window-maximized="1"
     inkscape:current-layer="svg1093" />
  <g
     id="_16"
     data-name="16">
    <path
       d="m24 37h16a10 10 0 0 1 10 10v11a0 0 0 0 1 0 0h-36a0 0 0 0 1 0 0v-11a10 10 0 0 1 10-10z"
       fill="#af3737"
       style="fill: rgb(244, 253, 124);"
       id="path1074" />
    <path
       d="m40 36h-1.38a12 12 0 0 0 5.38-10v-2a12 12 0 0 0 -24 0v2a12 12 0 0 0 5.38 10h-1.38a11 11 0 0 0 -11 11v11a1 1 0 0 0 2 0v-11a9 9 0 0 1 9-9h3.52l3.7 4.63a1 1 0 0 0 1.56 0l3.7-4.63h3.52a9 9 0 0 1 9 9v11a1 1 0 0 0 2 0v-11a11 11 0 0 0 -11-11z"
       fill="#000000"
       id="path1076" />
    <path
       d="m32 14a10 10 0 0 1 8 4 9 9 0 0 0 -8 1.63 8.92 8.92 0 0 0 -8-1.63 10 10 0 0 1 8-4z"
       fill="#4f4f4f"
       id="path1078" />
    <g
       fill="#ffe0d4"
       id="g1086">
      <path
         d="m22 26v-2a9.93 9.93 0 0 1 .48-3 6.89 6.89 0 0 1 8.81.76 1 1 0 0 0 1.42 0 6.89 6.89 0 0 1 8.81-.76 9.93 9.93 0 0 1 .48 3v2a9.93 9.93 0 0 1 -3.24 7.34l-1.93-2.89a1 1 0 0 0 -.83-.45h-8a1 1 0 0 0 -.83.45l-1.93 2.89a9.93 9.93 0 0 1 -3.24-7.34z"
         fill="#ffe0d4"
         id="path1080" />
      <path
         d="m26.84 34.55 1.7-2.55h6.92l1.7 2.55a9.91 9.91 0 0 1 -10.32 0z"
         fill="#ffe0d4"
         id="path1082" />
      <path
         d="m32 40.4-1.92-2.4h3.84z"
         fill="#ffe0d4"
         id="path1084" />
    </g>
    <path
       d="m21 47a1 1 0 0 0 -1 1v10a1 1 0 0 0 2 0v-10a1 1 0 0 0 -1-1z"
       fill="#000000"
       id="path1088" />
    <path
       d="m43 47a1 1 0 0 0 -1 1v10a1 1 0 0 0 2 0v-10a1 1 0 0 0 -1-1z"
       fill="#000000"
       id="path1090" />
  </g>
  <path
     style="fill:#ff60dd;stroke-width:0.0794045;fill-opacity:1"
     d="m 15.009493,52.466501 c 0.0011,-3.024317 0.03585,-5.84616 0.07715,-6.27076 0.359327,-3.693485 2.899179,-6.766189 6.441291,-7.792653 1.05334,-0.305246 1.740293,-0.368672 3.94679,-0.364409 l 2.03892,0.0039 1.866005,2.349277 c 1.026302,1.292102 1.973201,2.415754 2.104218,2.497004 0.303067,0.187946 0.726967,0.188764 1.032258,0.002 0.131017,-0.08015 1.077916,-1.204101 2.104218,-2.497659 l 1.866005,-2.351926 2.03892,-0.0033 c 2.207101,-0.0036 2.894014,0.05998 3.94679,0.365065 3.542112,1.026464 6.081964,4.099168 6.441291,7.792653 0.04131,0.4246 0.07603,3.246443 0.07715,6.27076 l 0.002,5.49876 H 46.533243 44.07393 l -0.02208,-5.144999 c -0.02042,-4.759678 -0.03257,-5.161002 -0.16214,-5.358696 -0.211461,-0.322629 -0.487749,-0.467356 -0.892194,-0.467356 -0.40444,0 -0.680729,0.144725 -0.892195,0.467347 -0.12956,0.197661 -0.141759,0.599531 -0.162665,5.358695 l -0.0226,5.145009 H 32 22.079943 l -0.0226,-5.145009 c -0.02091,-4.759164 -0.03311,-5.161034 -0.162665,-5.358695 -0.211466,-0.322622 -0.487755,-0.467347 -0.892195,-0.467347 -0.404445,0 -0.680733,0.144727 -0.892194,0.467356 -0.129574,0.197694 -0.141717,0.599018 -0.16214,5.358696 l -0.02208,5.144999 h -2.459313 -2.459313 z"
     id="path2689" />
</svg>
