<!-- icon666.com - MILLIONS vector ICONS FREE --><svg viewBox="0 0 512 512" xmlns="http://www.w3.org/2000/svg"><g id="Layer_1" data-name="Layer 1"><circle cx="91.533" cy="333.651" fill="#8f4d3d" r="42.557"/><circle cx="91.533" cy="333.651" fill="#f9e0a6" r="19.725"/><circle cx="422.123" cy="333.651" fill="#8f4d3d" r="42.557"/><circle cx="422.123" cy="333.651" fill="#f9e0a6" r="19.725"/><path d="m4.143 306.746v26.548a5.579 5.579 0 0 0 4.968 5.546l12.914 1.42v-33.514z" fill="#e48e66"/><path d="m507.857 304.988h-14.063v34.216l14.063-2.135z" fill="#cd2c5a"/><path d="m310.316 161.062h-56.545l9.815-25.27h36.915z" fill="#39c3fc"/><path d="m500.878 243.159-74.1-16.063s-22.89-63.342-84.817-68.232c-25.05-1.977-54.934-1.977-54.934-1.977-78.115 0-117.008 14.3-159.527 75.068l-82.482 29.723a90.2 90.2 0 0 0 -17.25 8.514l-5.743 36.554v33.514l17.394 1.914a52.811 52.811 0 1 1 104.226 0h226.364a52.812 52.812 0 1 1 104.227 0l19.558-2.97v-34.216h14.063v-53.176a8.854 8.854 0 0 0 -6.979-8.653z" fill="#f8ec7d"/><path d="m10.136 291.1-.2 15.651h12.089c5.186-8.917 6.526-21.675 5.743-36.554-8.907 5.67-16.637 13.06-17.632 20.903z" fill="#ececec"/><path d="m275.158 167.27c-34.194.761-57.659 4.986-77.035 13.712-21.833 9.833-40.442 26.467-59.982 53.691h137.017z" fill="#ececec"/><path d="m287.9 234.673h130.732l-1.493-4.071a114.544 114.544 0 0 0 -17.891-29.788c-15.963-19.269-35.509-29.944-58.1-31.727-21.99-1.736-48.174-1.924-53.248-1.944z" fill="#ececec"/><g fill="#e48e66"><path d="m143.645 342.174h226.364v13.792h-226.364z"/><path d="m39.419 342.174v12.474l-26.65-3.502-3.658-12.306z"/><path d="m507.857 350.198v-13.129l-33.621 5.105v13.792z"/></g><path d="m91.532 288.1a45.557 45.557 0 1 0 45.557 45.556 45.607 45.607 0 0 0 -45.557-45.556zm0 85.113a39.557 39.557 0 1 1 39.557-39.557 39.6 39.6 0 0 1 -39.557 39.552zm0-62.281a22.725 22.725 0 1 0 22.725 22.724 22.75 22.75 0 0 0 -22.725-22.729zm0 39.449a16.725 16.725 0 1 1 16.725-16.725 16.744 16.744 0 0 1 -16.725 16.72zm330.591-62.281a45.557 45.557 0 1 0 45.557 45.556 45.608 45.608 0 0 0 -45.557-45.556zm0 85.113a39.557 39.557 0 1 1 39.557-39.557 39.6 39.6 0 0 1 -39.557 39.552zm0-62.281a22.725 22.725 0 1 0 22.725 22.724 22.751 22.751 0 0 0 -22.725-22.729zm0 39.449a16.725 16.725 0 1 1 16.725-16.725 16.744 16.744 0 0 1 -16.725 16.72zm79.392-110.149-72.53-15.722a128.728 128.728 0 0 0 -19.074-31.592c-18.145-22.166-41.561-34.975-67.717-37.039-10.385-.82-21.654-1.3-31.29-1.584l-7.604-19.589a3 3 0 0 0 -2.8-1.914h-36.914a3 3 0 0 0 -2.8 1.914l-7.917 20.385c-24.762 1.956-43.692 6.375-60.192 13.8-24.758 11.152-45.478 29.846-67.093 60.559l-81.584 29.405a92.948 92.948 0 0 0 -17.845 8.806c-7.975 5.083-17.746 13.208-19 23.056-.013.113-.021.226-.023.34l-.159 12.689h-2.83a3 3 0 0 0 -3 3v26.548a8.564 8.564 0 0 0 5.577 8.031l3.174 10.675a3 3 0 0 0 2.485 2.12l26.65 3.5a3 3 0 0 0 3.391-2.975v-12.471a3.076 3.076 0 0 0 -.045-.483h.006a49.81 49.81 0 1 1 98.3 0h.009a2.937 2.937 0 0 0 -.048.481v13.792a3 3 0 0 0 3 3h226.368a3 3 0 0 0 3-3v-13.79a2.949 2.949 0 0 0 -.049-.482h.01a49.811 49.811 0 1 1 98.3 0 2.961 2.961 0 0 0 -.044.483v13.792a3 3 0 0 0 3 3 3.1 3.1 0 0 0 .507-.043l33.621-5.768a3 3 0 0 0 2.493-2.957v-98.387a11.918 11.918 0 0 0 -9.333-11.585zm-235.876-101.44h32.809l5.954 15.329c-10.117-.228-17.234-.234-17.379-.234-9.925 0-19.058.245-27.537.748zm-252.506 152.521c.694-4.887 4.839-10.3 11.827-15.542.185 12.138-1.37 21.344-4.72 27.975h-7.262zm-3.694 44.544a2.574 2.574 0 0 1 -2.3-2.563v-23.548h11.885v27.166zm26.981 15.371-21.329-2.8-1.817-6.11 23.146 2.547zm330.59 1.738h-220.364v-7.792h220.364zm55.113-75.126a55.875 55.875 0 0 0 -55.811 55.811c0 1.828.1 3.676.29 5.523h-219.549c.185-1.848.29-3.695.29-5.523a55.811 55.811 0 1 0 -111.621 0c0 1.7.09 3.411.249 5.125l-10.947-1.2v-30.069c4.557-8.307 6.465-20.007 5.817-35.686a87.919 87.919 0 0 1 15.194-7.321l82.48-29.723a2.991 2.991 0 0 0 1.44-1.1c40.048-57.237 75.277-73.788 157.068-73.788.3 0 30.059.023 54.7 1.967 24.774 1.957 46.112 13.634 63.423 34.709a121.364 121.364 0 0 1 18.81 31.554 3 3 0 0 0 2.185 1.91l74.1 16.063a5.887 5.887 0 0 1 4.614 5.722v50.175h-11.061a3 3 0 0 0 -3 3v31.638l-13.094 1.987c.15-1.66.233-3.318.233-4.963a55.875 55.875 0 0 0 -55.81-55.811zm82.734 56.649-8.063 1.225v-27.727h8.063zm0 13.18-27.621 4.738v-7.654l27.621-4.194zm-229.765-183.4c-34.319.764-58.436 5.075-78.2 13.976-22.423 10.1-41.293 26.96-61.189 54.677a3 3 0 0 0 2.438 4.749h137.017a3 3 0 0 0 3-3v-67.4a3 3 0 0 0 -3.066-3zm-2.934 67.4h-128.1c17.968-24 35.186-38.9 55.3-47.955 18.411-8.292 40.958-12.444 72.8-13.37zm147.794-2.113a116.936 116.936 0 0 0 -18.394-30.656c-16.5-19.917-36.745-30.954-60.171-32.8-22.135-1.748-48.426-1.934-53.472-1.953h-.015a3 3 0 0 0 -3 3v67.529a3 3 0 0 0 3 3h130.732a3 3 0 0 0 2.816-4.032zm-129.052 2.117v-61.51c8.786.075 30.972.411 50.011 1.914 21.749 1.718 40.6 12.029 56.023 30.651a112.756 112.756 0 0 1 17.386 28.907l.014.038zm-26.467 27.11a3 3 0 0 0 -5.653 0l-13.48 37.865a3 3 0 1 0 5.652 2.012l2.366-6.644h16.582l2.366 6.644a3 3 0 0 0 5.652-2.012zm-8.979 27.233 6.152-17.283 6.153 17.283zm-10.4-23.227h-11.75v34.8a3 3 0 0 1 -6 0v-34.8h-11.747a3 3 0 0 1 0-6h29.5a3 3 0 0 1 0 6zm68.929-1.35-11.383 17.283 11.384 17.278a3 3 0 0 1 -5.01 3.3l-9.966-15.13-9.965 15.13a3 3 0 0 1 -5.01-3.3l11.384-17.282-11.384-17.283a3 3 0 1 1 5.01-3.3l9.965 15.129 9.966-15.129a3 3 0 0 1 5.01 3.3zm13.341-1.65v37.865a3 3 0 0 1 -6 0v-37.865a3 3 0 0 1 6 0zm35.246 18.933a3 3 0 0 1 -3 3h-25.927a3 3 0 0 1 0-6h25.928a3 3 0 0 1 3 3zm-153 0a3 3 0 0 1 -3 3h-25.927a3 3 0 0 1 0-6h25.928a3 3 0 0 1 3 3z"/></g></svg>