<!-- icon666.com - MILLIONS vector ICONS FREE --><svg viewBox="0 0 512 512" xmlns="http://www.w3.org/2000/svg" xmlns:xlink="http://www.w3.org/1999/xlink"><linearGradient id="New_Gradient_Swatch_20" gradientUnits="userSpaceOnUse" x1="183.514" x2="264.486" y1="184.485" y2="103.514"><stop offset=".011" stop-color="#fce6aa"></stop><stop offset="1" stop-color="#fdf3d4"></stop></linearGradient><linearGradient id="New_Gradient_Swatch_2" gradientUnits="userSpaceOnUse" x1="105.278" x2="398.726" y1="435.203" y2="141.755"><stop offset=".011" stop-color="#f8c73f"></stop><stop offset="1" stop-color="#fada7f"></stop></linearGradient><linearGradient id="New_Gradient_Swatch_22" gradientUnits="userSpaceOnUse" x1="379.716" x2="436.284" y1="364.284" y2="307.716"><stop offset=".011" stop-color="#dcdce3"></stop><stop offset="1" stop-color="#ededf1"></stop></linearGradient><linearGradient id="New_Gradient_Swatch_3" gradientUnits="userSpaceOnUse" x1="371.248" x2="444.752" y1="372.752" y2="299.248"><stop offset=".011" stop-color="#606082"></stop><stop offset="1" stop-color="#83839e"></stop></linearGradient><linearGradient id="New_Gradient_Swatch_22-2" x1="91.716" x2="148.284" xlink:href="#New_Gradient_Swatch_22" y1="364.284" y2="307.716"></linearGradient><linearGradient id="New_Gradient_Swatch_3-2" x1="83.248" x2="156.752" xlink:href="#New_Gradient_Swatch_3" y1="372.752" y2="299.248"></linearGradient><linearGradient id="New_Gradient_Swatch_3-3" x1="279.868" x2="359.647" xlink:href="#New_Gradient_Swatch_3" y1="256.996" y2="177.217"></linearGradient><linearGradient id="New_Gradient_Swatch_3-4" x1="69.581" x2="127.024" xlink:href="#New_Gradient_Swatch_3" y1="234.939" y2="177.495"></linearGradient><linearGradient id="New_Gradient_Swatch_3-5" x1="150.939" x2="228.862" xlink:href="#New_Gradient_Swatch_3" y1="239.561" y2="161.638"></linearGradient><g id="_29-taxi" data-name="29-taxi"><g id="gradient"><path d="m283.384 156.205-16-48a12 12 0 0 0 -11.384-8.205h-64a12 12 0 0 0 -11.384 8.2l-16 48a12 12 0 0 0 11.384 15.8h96a12 12 0 0 0 11.384-15.795z" fill="url(#New_Gradient_Swatch_20)"></path><path d="m498.093 244.184-92.321-16.348-73.834-72.911a23.854 23.854 0 0 0 -16.865-6.925h-186.011a35.889 35.889 0 0 0 -33.281 22.271l-23.812 57.729h-43.969a24.028 24.028 0 0 0 -24 24v72a24.028 24.028 0 0 0 24 24h444a36.04 36.04 0 0 0 36-36v-56a12 12 0 0 0 -9.907-11.816z" fill="url(#New_Gradient_Swatch_2)"></path><circle cx="408" cy="336" fill="url(#New_Gradient_Swatch_22)" r="40"></circle><path d="m408 388a52 52 0 1 1 52-52 52.059 52.059 0 0 1 -52 52zm0-80a28 28 0 1 0 28 28 28.032 28.032 0 0 0 -28-28z" fill="url(#New_Gradient_Swatch_3)"></path><circle cx="120" cy="336" fill="url(#New_Gradient_Swatch_22-2)" r="40"></circle><path d="m120 388a52 52 0 1 1 52-52 52.059 52.059 0 0 1 -52 52zm0-80a28 28 0 1 0 28 28 28.032 28.032 0 0 0 -28-28z" fill="url(#New_Gradient_Swatch_3-2)"></path><path d="m288 272h-16a12 12 0 0 1 0-24h16a12 12 0 0 1 0 24z" fill="#fdecbf"></path><path d="m349.231 172h-77.231a12 12 0 0 0 -12 12v32a12 12 0 0 0 12 12h134.7l-.927-.164z" fill="url(#New_Gradient_Swatch_3-3)"></path><path d="m109 172h-13.932l-23.1 56h37.032a12 12 0 0 0 12-12v-32a12 12 0 0 0 -12-12z" fill="url(#New_Gradient_Swatch_3-4)"></path><rect fill="url(#New_Gradient_Swatch_3-5)" height="56" rx="12" width="91" x="145" y="172"></rect></g></g></svg>